<?xml version="1.0" encoding="utf-8"?>
<svg xmlns="http://www.w3.org/2000/svg" xmlns:xlink="http://www.w3.org/1999/xlink" version="1.1" style="width:0;height:0;position:absolute;overflow:hidden;">
  <defs>
<symbol viewBox="0 0 1024 832" aria-labelledby="chsi-metro-camera-title" id="si-metro-camera"><title id="chsi-metro-camera-title">icon camera</title><path d="M304 480c0 114.876 93.124 208 208 208s208-93.124 208-208-93.124-208-208-208-208 93.124-208 208zm656-352H736C720 64 704 0 640 0H384c-64 0-80 64-96 128H64c-35.2 0-64 28.8-64 64v576c0 35.2 28.8 64 64 64h896c35.2 0 64-28.8 64-64V192c0-35.2-28.8-64-64-64zM512 764c-156.85 0-284-127.148-284-284 0-156.85 127.15-284 284-284 156.852 0 284 127.15 284 284 0 156.852-127.146 284-284 284zm448-444H832v-64h128v64z"/></symbol>
<symbol viewBox="0 0 1024 1024" aria-labelledby="ftsi-metro-facebook-title" id="si-metro-facebook"><title id="ftsi-metro-facebook-title">icon facebook</title><path d="M853.35 0H170.648C76.398 0 0 76.42 0 170.686v682.63C0 947.582 76.398 1024 170.648 1024H512V576H384V448h128v-96c0-88.366 71.634-160 160-160h160v128H672c-17.674 0-32 14.328-32 32v96h176l-32 128H640v448h213.35c94.25 0 170.65-76.418 170.65-170.684v-682.63C1024 76.42 947.6 0 853.35 0z"/></symbol>
<symbol viewBox="0 0 1024 768" aria-labelledby="scsi-metro-video-camera-title" id="si-metro-video-camera"><title id="scsi-metro-video-camera-title">icon video-camera</title><path d="M384 160C384 71.634 455.634 0 544 0s160 71.634 160 160-71.634 160-160 160-160-71.634-160-160zM0 160C0 71.634 71.634 0 160 0s160 71.634 160 160-71.634 160-160 160S0 248.366 0 160zm768 320v-96c0-35.2-28.8-64-64-64H64c-35.2 0-64 28.8-64 64v320c0 35.2 28.8 64 64 64h640c35.2 0 64-28.8 64-64v-96l256 160V320L768 480zM640 640H128V448h512v192z"/></symbol>
<symbol viewBox="0 0 1032.346923828125 585.4198608398438" aria-labelledby="sfsi-metro-vk-title" id="si-metro-vk"><title id="sfsi-metro-vk-title">icon vk</title><path d="M916.838 410.367s82.79 81.766 103.27 119.603c.563.819.82 1.434.922 1.792 8.346 13.978 10.394 24.934 6.298 33.024-6.912 13.363-30.31 20.07-38.246 20.634H842.753c-10.189 0-31.386-2.662-57.19-20.48-19.712-13.773-39.322-36.454-58.317-58.624-28.365-32.922-52.89-61.491-77.722-61.491-3.174 0-6.246.512-9.216 1.536-18.79 5.939-42.65 32.717-42.65 104.038 0 22.323-17.613 35.021-29.952 35.021h-67.02c-22.836 0-141.723-7.987-247.143-119.142C124.364 330.188 8.345 57.19 7.219 54.784 0 37.12 15.155 27.494 31.539 27.494h147.764c19.814 0 26.266 11.981 30.771 22.733 5.222 12.339 24.576 61.696 56.32 117.146 51.405 90.214 82.995 126.925 108.237 126.925 4.762 0 9.267-1.178 13.517-3.584 32.973-18.125 26.83-135.885 25.293-160.154 0-4.71-.05-52.582-16.947-75.725-12.083-16.589-32.666-23.04-45.107-25.395 3.328-4.813 10.394-12.186 19.456-16.538C393.423 1.638 434.229 0 474.728 0h22.477c43.93.614 55.296 3.43 71.27 7.475 32.154 7.68 32.768 28.518 29.952 99.482-.819 20.275-1.69 43.11-1.69 69.99 0 5.734-.256 12.134-.256 18.637-.973 36.403-2.253 77.414 23.45 94.259a20.952 20.952 0 0 0 11.11 3.174c8.91 0 35.584 0 107.93-124.16 31.744-54.835 56.32-119.501 58.01-124.365 1.434-2.714 5.734-10.342 10.957-13.414 3.994-2.458 9.318-2.867 12.083-2.867h173.824c18.944 0 31.795 2.867 34.304 10.035 4.198 11.622-.819 47.104-80.179 154.419a6678.045 6678.045 0 0 1-35.379 46.848c-71.936 94.413-71.936 99.174 4.25 170.854z"/></symbol>
  </defs>
</svg>
